<?xml version="1.0" standalone="no"?>
<!DOCTYPE svg PUBLIC "-//W3C//DTD SVG 20010904//EN"
 "http://www.w3.org/TR/2001/REC-SVG-20010904/DTD/svg10.dtd">
<svg version="1.0" xmlns="http://www.w3.org/2000/svg"
 width="1348.000000pt" height="758.000000pt" viewBox="0 0 1348.000000 758.000000"
 preserveAspectRatio="xMidYMid meet">
<metadata>
Created by potrace 1.16, written by Peter Selinger 2001-2019
</metadata>
<g transform="translate(0.000000,758.000000) scale(0.100000,-0.100000)"
fill="#000000" stroke="none">
<path d="M6660 6903 c-30 -21 -76 -71 -89 -98 -5 -11 -13 -42 -16 -69 -5 -36
-11 -50 -26 -53 -21 -6 -24 -14 -10 -28 5 -6 11 -21 13 -34 2 -18 12 -27 36
-33 27 -7 38 -18 54 -55 24 -55 17 -76 -31 -83 -37 -6 -36 -3 -20 -76 12 -54
12 -57 -10 -73 -13 -10 -40 -24 -60 -30 -78 -28 -97 -53 -120 -161 -14 -64
-35 -128 -62 -187 -10 -24 -19 -46 -19 -50 0 -4 -14 -42 -32 -85 -23 -57 -37
-78 -50 -78 -10 0 -35 -15 -55 -33 -57 -50 -138 -87 -188 -87 -24 0 -47 5 -51
11 -4 6 -19 8 -37 5 -31 -6 -67 14 -67 38 0 13 -52 76 -63 76 -4 0 -7 -20 -7
-45 0 -34 4 -45 15 -45 19 0 35 -39 35 -85 0 -18 3 -40 6 -49 7 -18 49 -22 59
-6 4 7 55 8 143 4 85 -3 161 -1 202 6 132 23 133 23 170 -2 19 -13 40 -39 48
-60 13 -34 12 -43 -12 -118 -21 -66 -26 -101 -26 -183 0 -121 -6 -147 -31
-147 -11 0 -19 -4 -19 -9 0 -17 -40 -19 -49 -3 -9 16 -10 16 -16 0 -4 -9 -5
-28 -3 -43 l3 -26 22 20 c12 12 33 22 45 24 22 2 23 0 23 -83 -1 -105 -16
-270 -25 -270 -9 0 -44 49 -75 104 -29 52 -31 79 -10 129 25 61 -12 52 -44
-10 -18 -34 -14 -49 40 -160 44 -89 51 -110 46 -145 -6 -47 0 -68 19 -68 20 0
22 -17 39 -245 5 -66 4 -77 -7 -64 -7 9 -40 29 -73 44 -33 15 -67 34 -76 42
-9 7 -56 19 -105 26 -49 7 -89 17 -89 23 0 25 40 57 133 105 56 29 102 56 102
61 0 16 -38 84 -54 97 -9 8 -16 21 -16 30 0 11 -14 21 -42 29 -51 14 -75 28
-65 38 4 5 21 0 37 -10 28 -16 70 -15 70 2 0 4 -9 22 -20 40 -11 18 -18 37
-15 43 9 14 -5 49 -20 49 -7 0 -15 12 -17 28 -3 15 -9 35 -13 45 -6 14 -1 18
25 23 26 6 31 11 29 33 -1 14 1 33 4 41 3 8 8 29 10 45 3 17 8 41 12 55 8 25
8 25 -11 5 -11 -11 -38 -56 -59 -99 -33 -66 -45 -81 -70 -88 -42 -11 -62 -2
-81 38 -10 21 -23 34 -35 34 -18 0 -18 -2 -5 -23 9 -12 20 -47 27 -76 6 -30
20 -63 30 -75 11 -11 19 -23 19 -28 0 -4 7 -8 15 -8 11 0 14 -7 9 -24 -4 -18
2 -31 27 -54 l32 -30 -24 -7 c-48 -15 -52 -57 -9 -106 32 -37 38 -59 15 -59
-27 0 -83 -33 -88 -52 -3 -11 -14 -22 -25 -25 -11 -3 -26 -18 -32 -34 -7 -15
-20 -31 -30 -34 -10 -3 -21 -13 -24 -23 -4 -9 -13 -28 -21 -42 -16 -27 -21
-156 -7 -178 5 -7 24 -21 43 -31 34 -18 65 -63 54 -80 -3 -5 -35 19 -72 54
l-66 63 -4 389 c-4 499 -10 633 -29 633 -9 0 -14 -12 -14 -37 0 -32 -7 -44
-48 -83 -27 -25 -58 -63 -69 -85 -20 -39 -20 -40 -1 -65 17 -23 18 -35 10
-100 -12 -99 8 -185 60 -262 15 -21 19 -46 19 -107 0 -44 -5 -89 -10 -100 -14
-25 -14 -111 -1 -111 6 0 10 -21 10 -46 0 -41 -4 -49 -50 -93 -27 -26 -50 -53
-50 -59 0 -11 22 -67 42 -105 7 -14 3 -20 -22 -28 -16 -6 -30 -15 -30 -19 0
-5 -11 -21 -24 -37 -13 -16 -29 -48 -36 -72 -6 -24 -22 -53 -34 -65 -28 -26
-76 -95 -76 -109 0 -7 4 -7 12 1 7 7 24 12 39 12 15 0 31 5 34 10 3 6 20 10
36 10 17 0 32 6 35 15 4 8 15 15 25 15 12 0 19 7 19 20 0 16 37 48 44 38 1 -2
7 -30 13 -63 11 -64 6 -165 -8 -165 -5 0 -26 -15 -46 -33 -21 -18 -56 -42 -78
-52 -46 -23 -94 -64 -95 -81 0 -14 -23 -24 -51 -24 -11 0 -29 -9 -41 -20 -12
-11 -35 -20 -51 -20 -16 0 -41 -6 -55 -14 -15 -7 -48 -23 -74 -35 -27 -11 -48
-27 -48 -36 0 -9 -9 -15 -24 -15 -13 0 -26 -7 -30 -15 -3 -8 -13 -15 -23 -15
-10 0 -24 -9 -31 -21 -8 -13 -19 -18 -31 -14 -10 3 -30 1 -43 -6 l-25 -11 18
-36 c22 -42 17 -54 -9 -24 -10 11 -30 24 -44 27 -36 9 -109 -45 -137 -101 -14
-27 -30 -44 -46 -48 -13 -3 -34 -16 -45 -28 -14 -15 -23 -19 -28 -12 -17 26
-54 23 -84 -7 -17 -16 -41 -30 -55 -31 -29 -3 -40 -22 -24 -42 10 -11 7 -18
-11 -30 -25 -18 -74 -21 -83 -6 -3 5 -14 10 -23 10 -15 -1 -15 -2 1 -14 17
-14 17 -16 -13 -38 -18 -12 -36 -33 -40 -45 -5 -12 -21 -24 -39 -28 -16 -3
-35 -13 -42 -21 -6 -8 -20 -14 -30 -14 -19 0 -26 -2 -87 -33 -19 -9 -42 -17
-53 -17 -20 0 -26 -15 -9 -25 16 -10 -6 -42 -34 -49 -14 -3 -30 -15 -36 -26
-6 -11 -19 -20 -29 -20 -24 0 -46 -47 -30 -66 13 -16 7 -19 -54 -29 -21 -3
-35 -10 -32 -15 3 -4 -2 -16 -12 -25 -14 -14 -14 -18 -2 -26 8 -5 17 -9 22 -9
4 0 7 -6 7 -12 0 -22 -64 -58 -101 -58 -28 0 -39 -6 -49 -25 -12 -22 -20 -25
-79 -27 -36 0 -51 -3 -33 -5 26 -4 32 -9 32 -28 0 -16 -7 -26 -22 -30 -13 -4
-38 -19 -57 -33 l-35 -26 30 -12 c34 -15 24 -20 -54 -28 -51 -5 -56 -3 -89 29
-45 44 -68 51 -98 31 -13 -9 -36 -16 -50 -16 -36 0 -32 -28 5 -37 36 -10 40
-26 8 -34 -16 -4 -5 -8 37 -14 49 -6 55 -9 35 -15 -56 -17 -115 -55 -118 -78
-3 -23 -11 -26 -92 -37 -24 -3 -51 -12 -60 -20 -16 -14 -33 -18 -62 -16 -32 2
-19 21 15 21 36 0 57 15 57 40 0 27 32 48 80 56 72 11 99 44 36 44 -19 0 -47
7 -63 16 -22 13 -40 15 -78 10 -54 -9 -45 -26 13 -26 20 0 31 -4 27 -10 -3 -5
-23 -10 -45 -10 -24 0 -40 -5 -44 -15 -4 -11 -21 -15 -68 -15 -51 1 -73 6
-113 30 -27 16 -49 35 -47 42 2 7 6 35 9 62 6 44 4 49 -11 43 -10 -4 -22 -7
-27 -7 -5 0 -9 -9 -9 -20 0 -25 -27 -37 -43 -21 -9 9 -6 13 11 17 22 6 31 24
12 24 -13 0 -13 37 1 45 5 4 18 0 28 -9 27 -25 37 -20 81 39 33 45 46 55 70
55 77 0 112 51 67 98 l-26 27 25 53 c14 28 29 52 33 52 4 0 52 38 106 85 54
47 104 85 112 85 12 0 18 18 14 48 -1 7 9 12 24 12 18 0 43 17 82 55 32 32 65
55 77 55 12 0 27 9 34 20 7 11 18 20 26 20 7 0 19 7 26 14 6 8 31 25 55 36 25
12 55 32 67 46 13 13 32 24 43 24 11 0 25 8 31 18 6 9 31 27 56 40 85 42 85
70 0 57 -28 -4 -52 -14 -60 -26 -7 -10 -20 -19 -28 -19 -16 0 -125 -49 -134
-60 -9 -11 -125 -96 -157 -115 -18 -11 -33 -23 -33 -27 0 -4 -21 -8 -47 -10
-41 -3 -48 -6 -51 -25 -3 -18 -11 -22 -44 -25 -38 -3 -41 -6 -43 -31 -1 -31
-18 -47 -51 -47 -25 0 -74 -43 -74 -64 0 -18 -30 -36 -59 -36 -12 0 -30 -8
-42 -17 -51 -44 -79 -76 -79 -91 0 -9 -11 -26 -23 -37 -13 -11 -28 -33 -34
-50 -8 -25 -15 -30 -48 -33 -33 -3 -115 -44 -115 -58 0 -3 12 -15 27 -28 16
-14 23 -27 18 -35 -5 -9 -16 -5 -39 17 -24 24 -45 32 -91 39 l-60 8 0 72 c0
62 -3 74 -23 91 -30 26 -28 35 7 30 23 -3 27 -1 23 14 -2 10 -18 26 -35 35
-30 15 -30 16 -11 30 16 12 17 15 4 23 -8 5 -24 15 -35 24 -19 13 -19 15 -2
21 22 9 22 23 0 27 -10 2 -18 12 -18 22 0 10 -10 22 -23 27 -22 8 -23 8 -16
-44 4 -28 6 -54 6 -57 -1 -100 -2 -102 -71 -78 -49 17 -68 41 -80 97 -20 94
-12 389 11 418 16 20 53 -5 77 -52 11 -23 21 -47 21 -54 0 -20 37 -11 65 16
23 24 26 33 21 68 -15 111 -52 207 -88 233 -10 7 -27 30 -38 51 -10 21 -26 41
-34 44 -8 3 -23 21 -32 38 -9 18 -23 39 -30 47 -26 26 -3 31 47 12 27 -11 52
-20 54 -20 3 0 14 -18 25 -40 13 -26 27 -40 40 -40 11 0 20 4 20 9 0 5 8 12
19 16 23 7 71 77 71 104 0 31 -27 84 -62 121 -51 54 -111 100 -129 100 -9 0
-20 7 -23 16 -3 8 -25 24 -49 34 -24 11 -54 28 -67 40 -12 11 -29 20 -37 20
-21 0 -17 73 5 93 24 22 32 21 32 -2 0 -11 5 -23 10 -26 6 -3 10 -1 10 5 0 6
16 25 35 43 19 17 35 36 35 41 0 5 -11 23 -24 40 -21 28 -23 39 -19 103 5 69
6 71 27 60 11 -7 24 -16 28 -22 4 -5 8 0 8 12 0 15 -8 25 -23 28 -19 5 -23 11
-19 36 5 31 32 41 33 12 0 -15 2 -15 9 2 13 30 11 97 -3 125 -10 20 -10 32 1
65 10 30 11 45 3 58 -6 9 -12 60 -13 112 -1 52 -5 95 -10 95 -15 0 -8 38 8 44
12 5 14 13 9 34 -4 15 -8 86 -10 157 -3 88 -9 140 -18 160 -9 17 -18 54 -22
84 -8 60 -32 92 -64 84 -12 -3 -24 -10 -27 -15 -13 -21 -25 -86 -34 -178 -9
-103 -25 -207 -40 -255 -5 -16 -21 -77 -35 -135 -14 -58 -30 -116 -34 -130 -5
-14 -15 -45 -22 -70 -14 -50 -52 -135 -156 -350 -39 -80 -83 -178 -98 -218
-37 -96 -62 -122 -115 -122 -57 0 -119 -43 -120 -84 0 -15 -11 -42 -25 -60
-14 -17 -29 -35 -33 -41 -4 -5 -20 -38 -35 -71 -44 -100 -33 -190 35 -286 9
-13 9 -22 1 -40 -6 -13 -21 -61 -33 -108 -11 -47 -28 -98 -36 -114 -7 -16 -14
-36 -14 -44 0 -8 -11 -62 -25 -121 -14 -58 -28 -116 -31 -129 -2 -12 -10 -22
-17 -22 -30 0 -118 -102 -148 -170 -6 -14 -17 -38 -25 -53 -10 -20 -11 -34 -4
-47 5 -10 8 -47 6 -82 -5 -78 14 -140 58 -188 65 -71 60 -54 85 -295 13 -132
31 -230 42 -233 13 -5 11 -48 -4 -60 -7 -6 -34 -12 -61 -14 -40 -2 -53 -8 -69
-30 -17 -23 -18 -31 -8 -57 17 -39 65 -61 135 -61 54 0 56 -1 71 -36 8 -19 30
-53 49 -75 19 -22 37 -57 41 -77 4 -20 15 -52 25 -72 45 -90 54 -107 72 -132
10 -14 18 -32 18 -40 0 -8 18 -32 40 -53 22 -21 40 -46 40 -55 0 -8 12 -24 28
-35 66 -48 162 -161 162 -191 0 -13 4 -24 9 -24 22 0 149 -85 167 -112 10 -16
30 -31 44 -35 30 -7 94 -40 135 -70 17 -12 44 -24 60 -28 17 -4 49 -15 72 -26
24 -10 52 -19 63 -19 11 0 20 -4 20 -10 0 -5 4 -10 9 -10 5 0 7 9 4 20 -3 11
-14 20 -24 20 -10 0 -21 5 -24 10 -4 6 13 10 44 10 27 0 53 -4 56 -10 3 -5 23
-10 43 -10 20 0 55 -5 77 -10 30 -7 45 -6 62 5 12 8 37 15 55 15 52 1 121 19
150 40 15 11 36 20 47 20 11 0 32 5 48 12 15 6 36 10 45 9 10 -1 23 12 34 35
19 39 20 38 38 -19 7 -21 45 -22 72 -2 19 15 66 20 77 9 9 -10 -38 -44 -61
-44 -11 0 -22 -7 -26 -15 -3 -8 -15 -15 -26 -15 -24 0 -27 -15 -4 -24 24 -9
34 -7 34 8 0 7 9 16 19 19 16 4 20 -2 23 -40 2 -24 -1 -48 -7 -54 -11 -12 28
-49 51 -49 7 0 16 -11 20 -25 l6 -25 3573 0 3574 0 4 23 4 22 2 -22 c1 -20 7
-23 41 -23 29 0 40 4 40 15 0 8 -4 15 -10 15 -5 0 -10 9 -10 20 0 17 3 18 27
9 18 -7 28 -6 33 1 8 13 53 7 57 -7 2 -6 19 -9 37 -6 29 4 34 1 40 -21 6 -24
10 -26 64 -26 48 1 60 4 74 24 17 23 17 25 -3 50 -24 31 -55 34 -64 6 -3 -11
-10 -20 -15 -20 -13 0 -18 23 -9 41 6 12 2 25 -11 42 -19 24 -19 25 0 42 16
15 22 15 35 5 8 -7 15 -19 15 -26 0 -8 6 -14 14 -14 8 0 23 -11 34 -25 22 -28
42 -33 42 -10 0 8 -4 15 -10 15 -5 0 -10 18 -10 39 0 22 5 43 10 46 6 3 10 -4
10 -17 0 -29 80 -108 109 -108 19 0 25 9 22 35 -2 25 75 46 184 49 61 2 124 6
140 9 33 6 144 59 187 88 14 11 32 19 40 19 8 0 30 14 49 31 19 17 50 39 70
49 37 19 58 36 134 103 23 20 46 37 50 37 4 0 16 10 27 23 10 12 37 42 58 67
67 76 110 133 131 175 11 22 31 58 44 80 14 22 28 47 32 55 4 8 25 39 46 68
39 52 41 53 78 47 43 -7 99 2 99 16 0 5 -8 9 -17 9 -17 0 -63 45 -63 61 0 5
-16 15 -35 23 -22 10 -37 24 -41 40 -4 18 -13 26 -28 26 -32 0 -48 15 -44 41
l3 24 28 -28 c22 -21 34 -26 54 -21 25 7 25 9 20 65 -4 50 -1 66 22 111 30 57
73 218 91 338 19 134 39 191 85 240 75 82 80 153 14 182 -21 9 -28 21 -32 48
-2 19 1 45 6 57 8 17 6 27 -6 40 -8 10 -17 32 -19 48 -4 25 -6 21 -13 -23 -7
-50 -8 -52 -21 -30 -27 46 -74 165 -74 186 0 15 -49 170 -61 194 -5 10 -9 26
-9 37 0 10 -7 32 -15 47 -8 16 -15 41 -15 57 0 15 -4 35 -9 45 -5 9 -17 39
-26 66 -10 27 -26 57 -36 67 -11 11 -19 28 -19 38 0 11 -4 23 -10 26 -5 3 -10
17 -10 30 0 13 -4 27 -10 30 -5 3 -10 20 -10 36 0 17 -5 40 -11 51 -6 12 -22
64 -36 116 -19 76 -21 97 -11 104 7 4 16 8 20 8 10 0 55 -46 61 -62 10 -29 31
13 35 72 4 51 0 71 -23 123 -38 84 -135 177 -185 177 -6 0 -18 7 -26 15 -9 8
-27 15 -40 15 -14 0 -35 5 -47 12 -12 6 -46 10 -74 9 -42 -2 -53 1 -53 13 0
18 30 36 59 36 19 0 19 1 -5 27 -13 14 -27 38 -31 52 -3 14 -21 52 -40 83 -21
35 -36 76 -40 107 -3 28 -12 56 -19 62 -8 6 -14 28 -14 48 -1 20 -7 47 -15 61
-8 14 -14 43 -15 64 0 22 -4 53 -9 70 -11 37 -34 180 -35 218 -1 14 -4 29 -8
33 -4 4 -4 14 -1 22 3 8 0 19 -7 23 -15 9 -21 42 -22 109 0 33 -3 40 -10 28
-13 -25 -37 -21 -44 8 -7 29 -42 34 -50 8 -3 -10 -10 -26 -15 -35 -5 -10 -9
-33 -9 -51 0 -19 -3 -36 -6 -40 -8 -8 -13 -73 -20 -277 -9 -249 -9 -279 4
-292 7 -7 7 -19 1 -35 -13 -34 -5 -213 10 -241 9 -16 9 -27 2 -36 -7 -9 -7
-16 0 -23 6 -6 11 -32 11 -58 0 -36 -5 -50 -21 -61 -11 -8 -28 -31 -38 -51 -9
-20 -25 -38 -34 -40 -19 -5 -49 -79 -49 -119 0 -39 20 -70 56 -87 40 -19 47
-59 14 -77 -11 -6 -22 -25 -25 -48 -3 -20 -10 -45 -16 -54 -5 -10 -9 -50 -9
-90 0 -60 5 -83 29 -127 15 -30 35 -59 43 -65 27 -16 48 0 48 38 0 60 17 48
25 -17 14 -110 6 -346 -15 -407 -4 -14 -11 -34 -15 -45 -6 -18 -8 -16 -21 14
-8 18 -14 48 -14 66 0 48 -12 125 -19 125 -17 0 -89 -144 -107 -215 -3 -11
-10 -29 -14 -40 -28 -64 -35 -219 -11 -234 8 -5 10 -22 5 -50 -5 -34 -3 -44
11 -55 15 -11 17 -22 12 -63 -7 -58 -54 -143 -79 -143 -9 0 -20 -4 -23 -10 -8
-12 -52 -13 -59 -1 -3 5 14 31 39 59 53 58 57 77 18 68 -16 -4 -46 -9 -68 -13
-35 -5 -38 -4 -27 9 17 22 5 47 -27 54 -14 3 -36 7 -49 10 -13 2 -20 9 -16 15
8 13 -20 44 -76 82 -25 17 -66 52 -91 77 -25 25 -60 56 -77 70 -52 40 -154 92
-161 82 -4 -7 -14 -5 -25 4 -19 13 -19 14 7 14 35 0 34 12 -5 41 -17 13 -36
29 -42 34 -12 12 -66 38 -81 40 -20 3 -45 -16 -45 -35 0 -12 13 -26 31 -36 17
-9 47 -30 66 -47 19 -17 43 -38 55 -47 11 -8 39 -33 62 -54 22 -21 59 -50 81
-65 47 -30 215 -196 215 -212 0 -6 -8 -24 -17 -40 -16 -27 -16 -31 -1 -57 16
-27 58 -43 58 -23 0 16 38 51 55 51 8 0 15 5 15 10 0 6 10 10 23 9 22 0 22 0
1 -10 -20 -10 -57 -62 -50 -70 2 -2 6 -22 9 -44 4 -24 3 -34 -2 -26 -18 28
-33 0 -27 -49 8 -57 -5 -71 -79 -90 -27 -6 -58 -14 -68 -17 -26 -7 -10 -23 22
-23 16 0 34 -7 41 -15 7 -8 18 -15 25 -15 19 0 27 -30 10 -36 -8 -3 -17 -15
-21 -27 -11 -34 -76 -87 -99 -81 -25 6 -82 -21 -65 -31 22 -13 -11 -35 -54
-35 -23 0 -47 -5 -52 -10 -18 -18 -73 0 -88 30 l-13 28 71 7 c66 6 106 24 106
47 0 17 -31 41 -63 47 -22 5 -32 13 -32 26 0 24 -13 27 -61 17 l-39 -9 34 -9
c43 -12 50 -30 17 -45 -19 -9 -39 -9 -83 1 -32 7 -74 13 -94 12 -34 -1 -38 2
-74 63 -21 36 -44 65 -52 65 -7 0 -17 8 -20 18 -4 9 -13 21 -20 25 -8 5 -12
16 -9 25 7 22 -38 55 -63 47 -16 -5 -18 -13 -14 -48 3 -23 9 -46 14 -51 16
-17 10 -35 -11 -33 -12 1 -20 8 -20 19 0 13 -8 18 -31 18 -24 0 -30 -3 -25
-16 10 -26 -4 -35 -29 -18 -14 9 -32 13 -42 9 -15 -6 -13 -9 12 -22 17 -9 37
-22 46 -29 9 -8 27 -13 40 -12 14 1 38 -3 55 -9 52 -20 123 -36 136 -31 23 9
58 -10 58 -32 0 -11 3 -20 8 -20 4 0 13 -4 21 -9 12 -8 12 -12 -2 -26 -22 -21
-21 -34 2 -43 10 -4 30 -21 45 -38 23 -28 24 -32 8 -38 -9 -3 -24 -11 -33 -17
-13 -10 -20 -8 -37 9 -25 25 -31 26 -69 11 l-28 -11 30 -14 c17 -7 45 -13 63
-14 18 0 58 -11 87 -25 30 -13 66 -27 81 -31 24 -6 26 -4 19 15 -4 12 -2 28 5
36 7 9 8 15 0 20 -5 3 -10 11 -10 16 0 5 10 3 23 -5 18 -12 58 -23 112 -31 6
-1 30 -3 54 -3 24 -1 41 -5 37 -9 -16 -16 -86 -35 -150 -41 -38 -4 -71 -12
-73 -17 -5 -16 74 -94 102 -101 22 -5 41 -31 31 -41 -5 -5 -71 14 -101 30 -11
6 -57 12 -103 13 -86 2 -112 13 -112 45 0 24 -56 34 -123 22 -50 -9 -51 -10
-25 -21 14 -6 30 -17 35 -25 4 -8 21 -18 37 -24 16 -5 34 -18 40 -28 16 -28
38 -44 61 -45 14 -1 8 -7 -19 -20 -56 -28 -90 -25 -49 5 21 15 9 35 -22 35
-13 0 -37 5 -52 11 -75 30 -103 40 -103 36 0 -2 11 -18 25 -37 14 -19 25 -38
25 -42 0 -10 -37 -11 -42 0 -1 4 -24 18 -50 32 -27 13 -48 28 -48 32 0 12 18
19 25 8 3 -5 17 -10 31 -10 18 0 25 5 22 16 -3 18 -4 19 -88 57 -79 36 -107
41 -113 20 -4 -17 -5 -17 -6 0 0 9 -7 17 -13 18 -34 2 -51 11 -112 61 -36 30
-88 65 -114 79 -46 23 -48 25 -35 45 12 20 10 25 -22 57 -39 39 -38 63 1 73
13 3 24 10 24 14 0 4 23 10 52 12 47 5 57 2 95 -26 23 -17 42 -39 43 -49 0 -9
13 -25 28 -35 16 -9 27 -22 25 -29 -8 -21 39 -72 100 -108 64 -38 67 -39 67
-25 0 6 -4 10 -10 10 -5 0 -19 9 -30 20 -27 27 -12 33 79 28 39 -1 71 0 71 4
0 16 -29 22 -103 23 -83 2 -102 12 -91 48 3 10 -2 27 -11 38 -15 15 -15 21 -5
34 7 8 10 22 6 30 -8 23 -46 18 -71 -9 l-23 -25 -12 29 c-15 37 -86 86 -139
96 -34 7 -41 12 -41 35 0 16 5 18 28 13 15 -4 41 -12 57 -19 71 -29 86 -35 90
-35 2 0 10 14 19 31 14 27 14 33 1 46 -8 8 -15 18 -15 23 0 4 -10 11 -22 14
-25 6 -90 86 -98 119 -6 22 -18 30 -65 43 -27 9 -29 13 -28 53 2 53 -29 101
-64 101 -21 0 -23 5 -23 44 0 42 1 44 35 50 30 6 33 9 24 24 -14 21 -85 56
-99 47 -14 -8 -13 -38 2 -53 9 -9 5 -12 -18 -12 -22 0 -35 8 -53 35 -13 19
-29 35 -36 35 -7 0 -18 7 -25 14 -16 21 -92 56 -118 56 -18 0 -22 6 -22 29 0
16 -6 31 -15 35 -8 3 -15 15 -15 26 0 15 -8 22 -29 26 -17 4 -38 15 -47 25
-25 28 -50 23 -64 -11 -12 -30 -35 -40 -42 -19 -6 18 -46 1 -54 -23 -6 -20 -7
-20 -30 6 -14 14 -31 26 -39 26 -8 0 -19 9 -25 21 -7 12 -18 18 -26 15 -8 -3
-14 -2 -14 3 0 5 -10 11 -23 15 -20 5 -87 84 -87 104 0 4 22 7 50 7 27 1 52 4
56 7 3 4 1 23 -6 42 -10 32 -16 36 -45 36 -40 0 -52 -23 -22 -44 22 -15 22
-15 -11 -22 -18 -3 -35 -11 -38 -15 -13 -22 -74 32 -74 67 0 30 -20 32 -28 2
-5 -21 -6 -21 -13 -2 -4 10 -8 34 -8 52 l-1 33 -30 -21 c-30 -21 -30 -21 -30
-1 0 21 56 56 66 40 11 -19 44 -9 50 16 13 51 -16 76 -66 55 -18 -7 -33 -23
-36 -36 -5 -17 -13 -24 -31 -24 -14 0 -32 -8 -39 -17 -12 -17 -13 -17 -14 3 0
11 -14 30 -31 43 -25 19 -29 27 -24 50 5 24 2 29 -17 35 -17 4 -29 -1 -45 -20
-27 -30 -29 -46 -6 -42 10 2 19 -4 21 -14 4 -21 -11 -23 -30 -5 -7 7 -21 16
-30 20 -12 4 -18 17 -18 35 0 23 6 31 35 42 21 8 38 23 41 36 3 12 15 26 27
32 l22 11 -22 0 c-12 1 -23 -4 -25 -9 -2 -7 -19 -7 -53 0 -28 6 -69 13 -93 17
-23 3 -45 10 -48 14 -3 5 -21 9 -39 9 -29 0 -37 5 -51 32 -14 26 -14 33 -3 42
17 13 26 102 10 92 -6 -4 -11 -16 -11 -27 0 -12 -7 -19 -20 -19 -11 0 -20 3
-20 8 0 4 -10 12 -22 17 -13 6 -28 20 -34 33 l-11 22 -34 -34 c-29 -30 -36
-33 -49 -21 -8 7 -31 16 -51 20 -33 6 -37 5 -43 -19 -5 -22 -9 -25 -26 -16
-10 5 -20 20 -22 32 -2 19 -9 23 -32 21 -21 -2 -43 9 -79 37 -27 22 -56 40
-63 40 -24 0 -15 -29 10 -36 24 -6 93 -81 83 -90 -3 -3 -27 4 -54 16 -26 11
-60 26 -75 33 -26 11 -40 47 -18 47 6 0 10 7 10 15 0 10 -6 12 -17 8 -22 -8
-43 -28 -43 -41 0 -10 -33 -42 -43 -42 -4 0 -7 14 -7 30 0 30 -1 31 -35 24
-31 -5 -35 -4 -35 15 0 13 -10 26 -26 33 -23 11 -29 10 -44 -10 -24 -29 -29
-28 -69 9 -27 24 -31 33 -20 39 7 5 11 12 7 15 -11 11 -48 -29 -48 -52 0 -26
-21 -30 -40 -8 -7 8 -18 14 -24 14 -21 -4 -66 20 -66 35 0 10 14 14 51 14 52
1 79 14 79 38 0 17 -1 17 -34 4 -21 -8 -26 -6 -26 5 0 16 -25 29 -72 39 -39 9
-40 45 -1 38 14 -3 38 -11 52 -19 23 -12 27 -11 40 7 7 11 19 20 26 20 7 0 17
6 23 13 14 16 -2 37 -55 70 -52 33 -61 47 -31 47 14 0 50 -16 82 -35 64 -38
86 -43 86 -20 0 9 7 18 15 21 21 9 19 46 -5 72 -11 12 -20 30 -20 41 0 17 8
20 63 23 51 2 65 0 82 -17 11 -11 24 -19 29 -17 5 2 6 -4 3 -12 -3 -8 3 -22
14 -32 19 -17 23 -17 66 -2 43 16 46 15 65 -4 22 -22 47 -17 55 12 6 24 21 26
29 5 10 -26 59 -43 108 -38 27 3 46 2 46 -4 0 -6 24 -13 54 -16 30 -3 65 -12
78 -21 12 -8 42 -18 65 -22 34 -5 44 -3 49 10 3 9 13 16 20 16 8 0 19 12 24
26 10 26 30 25 30 -2 0 -9 10 -14 29 -14 21 0 32 -6 36 -20 3 -11 11 -20 16
-20 5 0 9 -11 9 -25 0 -28 17 -34 26 -10 5 13 9 13 21 3 9 -7 32 -12 52 -13
29 0 36 -4 36 -20 0 -16 8 -21 38 -23 20 -2 37 0 37 5 0 14 -14 29 -32 36 -10
3 -18 13 -18 20 0 8 -9 22 -20 32 -11 10 -20 23 -20 29 0 7 -20 28 -44 49 -25
20 -47 46 -51 57 -6 18 -12 19 -59 14 -49 -6 -54 -4 -74 21 -26 33 -27 39 -7
59 8 8 15 22 15 31 0 20 -51 85 -66 85 -6 0 -17 7 -24 15 -7 9 -19 14 -26 11
-12 -5 -84 68 -84 85 0 12 42 39 61 39 9 0 23 8 33 18 15 17 15 21 0 50 -8 17
-27 40 -42 50 -47 33 -146 76 -171 74 -13 -1 -33 6 -44 15 -10 10 -41 23 -68
29 -42 9 -49 9 -47 -3 2 -9 -13 -21 -36 -31 -38 -15 -40 -15 -57 6 -22 28 -34
28 -54 0 -13 -19 -18 -21 -35 -11 -16 10 -21 10 -28 -3 -7 -12 -11 -1 -16 37
-10 90 -36 143 -104 220 -13 15 -39 51 -57 80 -19 30 -41 63 -50 74 -8 10 -15
25 -15 31 0 7 -3 19 -6 28 -4 11 0 16 14 16 33 0 35 17 8 47 -28 30 -32 48
-16 58 6 4 -2 21 -21 43 -31 35 -31 36 -13 51 11 9 21 32 22 51 2 19 10 39 18
43 18 10 18 31 -1 47 -21 18 -19 27 9 34 38 10 39 33 1 71 -19 19 -35 40 -35
48 0 16 37 51 63 60 20 7 23 33 5 40 -7 3 1 6 19 6 33 1 51 15 33 26 -6 3 -29
7 -51 7 -27 0 -37 3 -28 9 12 7 11 9 -1 9 -12 1 -11 4 4 15 10 8 24 16 30 18
19 6 -14 37 -39 37 -29 0 -55 10 -55 20 0 4 13 13 30 18 32 12 100 5 100 -9 0
-5 22 -9 49 -9 41 0 51 -4 56 -20 8 -26 45 -27 45 -2 0 12 12 22 34 29 30 9
37 8 52 -8 9 -10 23 -19 31 -19 7 0 13 -5 13 -11 0 -6 16 -34 35 -63 19 -29
35 -60 35 -68 0 -9 6 -18 14 -21 8 -3 20 -28 27 -56 l13 -51 26 30 c33 36 60
39 60 7 0 -25 54 -85 63 -70 3 5 -1 30 -10 56 -13 40 -20 48 -52 58 -30 9 -39
18 -48 47 -7 23 -8 41 -2 47 16 16 10 40 -13 50 -23 10 -40 53 -39 93 0 12 -5
25 -13 28 -8 3 -12 14 -9 24 3 12 -2 20 -16 25 -17 5 -18 9 -9 18 36 34 72 49
104 44 26 -4 34 -2 34 9 0 17 -49 40 -102 49 -43 7 -47 17 -16 39 l22 16 -29
30 c-22 23 -25 30 -12 30 9 0 17 5 17 11 0 6 -6 9 -12 6 -25 -9 -46 11 -40 38
3 19 -3 34 -24 56 -22 23 -24 29 -11 29 28 0 20 14 -43 84 -38 42 -63 80 -70
106 -16 60 -93 133 -156 149 -77 18 -98 29 -119 61 -11 17 -24 30 -30 30 -15
1 -50 32 -57 52 -4 10 2 26 18 43 33 35 31 63 -3 71 -16 4 -32 10 -38 14 -5 4
-22 10 -36 14 -39 9 -46 36 -10 36 16 0 40 10 55 21 26 20 26 22 10 40 -9 11
-23 19 -31 19 -7 0 -13 5 -13 10 0 6 8 10 18 10 10 0 22 3 25 6 8 9 -37 44
-56 44 -16 0 -32 -27 -28 -49 1 -7 -8 -23 -20 -34 l-22 -21 -24 30 c-45 55
-46 62 -14 79 17 8 43 15 59 15 16 0 37 9 47 20 25 27 6 47 -51 56 -38 5 -44
9 -39 25 8 23 6 23 -25 2z m419 -2564 c11 -33 5 -59 -14 -59 -9 0 -6 -16 12
-52 l26 -53 -11 -160 c-5 -88 -8 -162 -6 -164 2 -2 78 -8 169 -14 226 -15 220
-26 -25 -47 -69 -6 -126 -16 -128 -21 -7 -18 -31 -9 -66 25 -20 18 -36 37 -36
42 0 5 13 22 29 37 28 28 29 29 15 74 -17 56 -19 295 -3 325 9 17 6 25 -15 47
-42 44 -34 76 14 59 18 -6 32 -20 39 -39z m-669 -715 c10 -10 11 -17 4 -24
-12 -12 -44 -3 -44 11 0 25 -34 4 -60 -37 -20 -32 -43 -53 -72 -67 -24 -11
-51 -24 -61 -29 -77 -39 -97 -51 -97 -59 0 -18 -18 -8 -24 14 -6 22 -7 22 -22
-5 -12 -24 -22 -28 -57 -29 -23 0 -36 -3 -29 -6 17 -7 15 -32 -3 -40 -9 -3
-24 2 -35 12 -18 17 -19 16 -25 -8 -4 -14 -13 -28 -21 -31 -18 -7 -54 14 -54
32 0 7 -7 21 -16 29 -13 14 -15 31 -9 106 4 49 10 100 14 113 l6 24 37 -18
c34 -18 37 -18 51 -2 9 11 36 19 80 23 56 5 72 3 115 -18 39 -19 64 -23 125
-23 74 1 76 2 86 30 10 27 12 28 53 22 24 -4 50 -13 58 -20z m-2706 -1709 c3
-8 13 -15 21 -15 11 0 15 -6 10 -19 -7 -22 15 -34 48 -26 12 3 35 2 50 -3 l28
-7 -21 -28 c-18 -22 -29 -27 -66 -27 -24 0 -44 -4 -44 -9 0 -10 -86 -42 -93
-34 -3 2 1 16 9 31 13 25 12 27 -14 38 l-27 11 35 16 c19 8 43 18 52 21 11 3
15 11 12 21 -4 10 -13 13 -25 10 -21 -7 -25 5 -7 23 16 16 25 15 32 -3z"/>
<path d="M5733 6088 c-53 -46 -54 -48 -32 -80 26 -35 64 -46 88 -24 10 9 24
16 33 16 8 0 23 9 33 20 15 17 16 20 3 25 -8 3 -19 5 -24 4 -20 -3 -26 2 -15
14 8 10 6 19 -10 35 -26 29 -31 28 -76 -10z"/>
<path d="M5383 5245 c-45 -38 -61 -81 -44 -114 6 -11 13 -39 15 -62 2 -27 12
-53 27 -69 l23 -25 6 25 c5 23 11 26 39 22 5 -1 13 -12 17 -24 6 -21 42 -57
57 -58 19 -1 4 41 -22 59 -23 16 -29 28 -27 53 1 31 -1 33 -39 36 -47 4 -65
17 -65 47 0 17 9 25 40 35 27 9 43 10 52 3 7 -6 30 -20 50 -32 l37 -20 16 22
c23 34 17 87 -11 87 -8 0 -14 4 -14 9 0 9 -77 41 -101 41 -8 0 -34 -16 -56
-35z"/>
<path d="M7814 5256 c-63 -28 -124 -141 -124 -229 0 -75 -42 -137 -123 -182
-16 -9 -29 -29 -69 -108 -5 -10 -8 -46 -7 -80 1 -34 -2 -74 -6 -89 -6 -23 -2
-32 26 -55 18 -16 37 -27 43 -25 5 2 20 1 33 -3 21 -5 23 -11 21 -45 -1 -22 1
-42 4 -45 2 -3 32 -7 66 -10 56 -5 62 -3 80 20 12 14 26 23 34 20 8 -3 21 1
28 10 11 13 8 15 -16 16 -16 1 -35 1 -41 0 -7 -1 -13 4 -13 12 0 9 8 13 23 10
14 -2 32 5 49 22 34 31 38 31 38 0 0 -14 -4 -25 -10 -25 -5 0 -10 -5 -10 -10
0 -20 40 15 50 44 13 37 13 36 -10 36 -23 0 -25 12 -8 40 10 16 10 24 0 40
-15 25 -16 50 -1 50 8 0 8 4 0 14 -6 7 -9 20 -6 28 3 8 -1 21 -10 28 -20 16
-20 86 0 94 17 6 10 31 -17 60 -10 11 -18 33 -18 48 0 31 2 31 50 -2 16 -12
36 -16 58 -13 39 6 37 22 -4 42 -16 8 -35 21 -43 28 -16 17 -17 71 -2 86 6 6
11 26 11 44 0 18 5 33 10 33 6 0 10 15 10 34 0 32 2 35 43 42 l42 7 -35 13
c-46 16 -107 17 -146 0z"/>
<path d="M7440 5170 c0 -33 22 -70 42 -70 11 0 23 -11 28 -25 5 -14 17 -28 26
-32 11 -4 12 -8 4 -13 -7 -4 -13 -22 -15 -39 -1 -17 -5 -34 -9 -38 -14 -14 -5
-33 17 -33 26 0 87 46 87 66 0 7 -20 30 -45 50 -25 22 -51 55 -60 78 -27 68
-75 104 -75 56z"/>
<path d="M5820 4587 c0 -96 3 -177 6 -180 12 -11 67 57 67 83 0 95 -42 270
-65 270 -5 0 -8 -78 -8 -173z"/>
<path d="M5480 4280 c-8 -11 -19 -20 -25 -20 -9 0 -129 -124 -155 -158 -3 -4
-17 -13 -32 -19 -16 -7 -28 -17 -28 -22 0 -15 -42 -57 -75 -74 -16 -8 -37 -25
-45 -36 -8 -12 -20 -21 -27 -21 -7 0 -27 -13 -45 -29 -74 -66 -175 -142 -214
-160 -23 -11 -65 -43 -93 -70 -34 -33 -61 -51 -77 -51 -15 0 -27 -7 -32 -19
-10 -26 -63 -68 -95 -76 -16 -5 -27 -14 -27 -25 0 -18 -30 -50 -47 -50 -5 0
-30 -19 -54 -43 -24 -23 -65 -59 -91 -80 -26 -21 -53 -43 -60 -50 -7 -7 -38
-30 -68 -52 -30 -22 -57 -42 -60 -45 -3 -3 -18 -14 -35 -24 -16 -11 -33 -25
-37 -32 -8 -12 -67 -43 -121 -63 -15 -6 -32 -21 -38 -33 -5 -13 -28 -32 -51
-43 -37 -18 -57 -39 -46 -51 8 -8 99 37 105 52 3 8 13 14 22 14 9 0 24 9 34
20 9 11 25 20 35 20 10 0 28 14 40 30 16 21 31 30 52 30 16 0 32 5 35 10 3 6
15 10 25 10 10 0 22 9 25 20 5 15 12 19 26 15 13 -4 19 -2 19 8 0 24 79 99 98
93 9 -3 31 3 47 14 17 11 38 20 48 20 9 0 17 4 17 9 0 18 45 58 72 65 15 3 35
19 44 35 9 15 31 36 48 46 33 20 66 53 66 67 0 4 7 8 16 8 8 0 32 18 51 40 20
22 42 40 50 40 7 0 36 18 64 40 28 22 57 40 64 40 8 0 31 18 51 40 21 22 42
40 47 40 16 0 115 80 192 155 40 39 96 93 126 120 77 71 163 166 180 195 28
52 11 94 -21 50z"/>
<path d="M8397 3936 c15 -19 34 -35 41 -35 6 -1 12 -6 12 -11 0 -7 -6 -7 -19
0 -32 16 -43 13 -29 -10 7 -11 17 -20 23 -20 5 0 24 -13 41 -28 17 -15 43 -36
58 -47 131 -96 391 -303 471 -375 28 -25 68 -59 90 -77 22 -17 66 -52 98 -78
32 -25 69 -51 82 -57 14 -6 25 -15 25 -20 0 -4 5 -8 12 -8 6 0 34 -17 62 -39
28 -21 61 -41 74 -45 12 -4 22 -11 22 -16 0 -11 39 -20 46 -9 3 5 -2 9 -10 9
-8 0 -20 9 -26 21 -9 17 -8 23 7 35 16 12 16 13 1 14 -9 0 -18 -5 -20 -11 -2
-7 -13 -9 -26 -4 -18 5 -21 10 -12 20 9 11 7 20 -7 39 -10 14 -23 26 -30 26
-7 0 -30 18 -52 39 -22 22 -61 54 -85 71 -25 17 -49 36 -53 43 -10 15 -116 96
-160 122 -18 11 -33 23 -33 27 0 4 -5 8 -11 8 -11 0 -78 51 -124 93 -11 11
-36 31 -55 45 -19 15 -51 39 -70 55 -39 31 -34 27 -110 82 -30 22 -61 45 -68
52 -7 7 -17 13 -21 13 -4 0 -16 8 -27 18 -36 33 -93 72 -103 72 -6 0 -11 5
-11 10 0 6 -7 10 -16 10 -12 0 -9 -8 13 -34z"/>
<path d="M9475 2181 c-8 -15 35 -61 51 -54 15 5 54 -22 54 -39 0 -4 -7 -8 -15
-8 -18 0 -20 -39 -2 -45 6 -2 29 -6 49 -10 35 -5 37 -8 32 -34 -6 -27 -4 -29
35 -36 47 -8 68 0 51 20 -12 15 -7 19 33 29 15 3 27 10 27 15 0 5 -30 24 -67
42 -38 18 -79 43 -92 56 -13 13 -36 23 -51 23 -15 0 -30 6 -33 14 -7 16 -64
38 -72 27z"/>
<path d="M0 1945 c0 -77 4 -125 10 -125 6 0 10 -11 10 -25 0 -14 5 -25 10 -25
6 0 10 3 10 8 0 4 35 7 78 7 74 0 78 1 113 35 20 19 39 45 43 58 4 12 10 22
14 23 63 8 112 7 112 -2 0 -8 4 -8 14 0 10 9 20 9 39 0 18 -8 30 -8 46 0 12 7
26 9 31 6 6 -3 7 1 4 9 -4 11 0 16 12 16 15 0 16 2 5 9 -8 5 -12 18 -9 28 3
13 -2 24 -13 32 -11 6 -19 19 -19 29 0 14 -2 15 -10 2 -8 -13 -10 -12 -11 5
-1 11 -1 24 0 28 1 4 -7 3 -18 -3 -11 -5 -31 -10 -45 -10 -14 0 -28 -5 -31
-10 -4 -7 -11 -7 -18 -2 -19 15 -198 15 -195 0 2 -7 -7 -14 -19 -16 -13 -2
-23 -7 -23 -12 0 -4 -27 -10 -61 -12 l-61 -3 4 38 c2 25 -1 37 -9 37 -10 0
-13 -30 -13 -125z"/>
<path d="M13445 979 c-4 -11 -23 -27 -42 -35 -34 -15 -54 -30 -113 -88 -17
-16 -30 -25 -30 -20 0 5 -5 2 -10 -6 -16 -25 -11 -52 15 -76 54 -50 49 -95
-11 -110 -13 -3 -24 -13 -24 -21 0 -13 -10 -14 -54 -9 -48 6 -56 5 -80 -17
-31 -29 -128 -46 -151 -27 -8 6 -19 9 -24 6 -5 -4 -12 -2 -16 4 -3 5 -18 10
-33 10 -25 0 -59 -24 -132 -91 -35 -32 -186 -109 -214 -109 -26 0 -42 15 -48
45 -3 14 -11 19 -26 18 -13 -2 -25 4 -28 12 -8 20 -60 20 -68 0 -3 -8 -14 -15
-25 -15 -14 0 -19 -5 -15 -15 4 -8 1 -15 -5 -15 -7 0 -17 -14 -23 -31 -9 -26
-15 -30 -39 -27 -17 3 -30 -1 -33 -9 -3 -7 -12 -13 -21 -13 -19 0 -67 -29 -78
-47 -4 -7 -21 -20 -38 -28 -27 -14 -33 -14 -61 -1 -25 13 -39 14 -74 5 -24 -6
-42 -14 -40 -18 3 -4 -10 -8 -27 -9 -21 -2 -39 -11 -50 -27 -10 -14 -25 -25
-32 -25 -25 0 -62 -81 -63 -137 l-1 -53 875 0 874 0 0 500 c0 427 -2 500 -14
500 -8 0 -18 -9 -21 -21z"/>
<path d="M256 912 c-10 -9 -7 -52 4 -52 6 0 10 -4 10 -10 0 -5 -3 -9 -7 -9 -5
1 -16 1 -25 0 -25 -1 -23 -21 2 -21 11 0 20 -4 20 -10 0 -5 -7 -7 -15 -4 -26
10 -19 -62 8 -90 23 -23 23 -23 5 -65 -10 -24 -15 -47 -12 -53 4 -6 0 -14 -7
-19 -11 -7 -11 -9 -1 -9 7 0 11 -4 7 -10 -3 -5 4 -26 15 -47 24 -45 24 -52 6
-87 -10 -20 -15 -23 -19 -12 -4 10 -16 13 -46 9 -34 -5 -41 -3 -41 11 0 9 -7
16 -15 16 -21 0 -31 29 -44 125 -16 109 -16 166 -2 193 10 18 9 22 -3 22 -8 0
-16 4 -18 10 -1 5 -13 11 -25 13 -12 2 -26 6 -29 10 -4 4 -11 7 -16 7 -4 0 -8
-174 -8 -387 0 -301 3 -384 12 -375 16 16 28 15 28 -2 0 -11 14 -14 60 -13 38
1 60 6 60 14 0 6 6 13 13 16 9 3 9 7 -2 20 -11 14 -11 20 -1 33 11 12 11 15
-1 12 -9 -2 -14 6 -15 22 -1 44 -4 50 -19 50 -9 0 -15 9 -15 25 0 18 5 25 20
25 11 0 20 4 20 9 0 15 48 22 75 9 14 -6 28 -23 32 -37 3 -14 11 -32 17 -40 9
-12 8 -13 -6 -8 -24 9 -23 -8 3 -44 11 -16 18 -33 15 -38 -3 -5 4 -7 16 -4 23
4 23 4 3 -12 -15 -12 -17 -19 -9 -32 14 -22 34 -28 34 -10 0 16 32 19 42 3 9
-14 50 34 44 51 -4 8 3 13 18 13 15 0 23 6 23 18 -1 61 3 69 46 91 42 22 83
22 112 1 6 -4 29 -5 52 -2 40 4 41 5 38 38 -3 36 12 55 26 33 6 -10 9 -7 9 12
0 14 -3 29 -7 33 -4 4 -8 13 -8 19 -1 7 -9 30 -19 51 -10 21 -15 47 -13 58 3
10 1 18 -4 18 -5 0 -9 9 -9 20 0 11 -5 20 -11 20 -6 0 -9 7 -6 15 4 8 2 17 -3
20 -6 4 -10 1 -10 -6 0 -10 -3 -10 -11 -2 -8 8 -9 20 -1 42 9 25 8 31 -2 31
-15 0 -30 45 -21 61 4 5 -2 25 -13 43 -14 23 -17 38 -10 49 7 13 5 17 -11 17
-23 0 -38 37 -22 53 7 7 7 16 0 29 -11 20 -29 25 -29 7 0 -17 -27 -39 -49 -39
-27 0 -26 -8 3 -35 24 -22 24 -22 6 -62 -10 -22 -23 -44 -29 -47 -6 -4 -8 -12
-5 -18 4 -7 2 -8 -5 -4 -6 4 -14 0 -17 -8 -7 -19 -37 -21 -67 -4 -43 23 -60
52 -35 60 7 3 8 9 3 19 -13 19 -7 50 13 72 15 17 15 19 -1 28 -20 12 -23 35
-4 42 9 4 9 6 0 6 -6 1 -15 -3 -18 -9 -4 -6 -18 -5 -40 4 -18 8 -36 12 -39 8z"/>
</g>
</svg>
